<?xml version="1.0" encoding="utf-8"?>
<!-- Generator: Adobe Illustrator 19.0.0, SVG Export Plug-In . SVG Version: 6.00 Build 0)  -->
<svg version="1.1" id="Layer_4" xmlns="http://www.w3.org/2000/svg" xmlns:xlink="http://www.w3.org/1999/xlink" x="0px" y="0px"
	 viewBox="-238 381 134.1 32" style="enable-background:new -238 381 134.1 32;" xml:space="preserve">
<style type="text/css">
	.st0{fill:#673AB7;}
	.st1{font-family:'ProductSans-Regular';}
	.st2{font-size:17.3419px;}
</style>
<g id="XMLID_261_">
	<path id="XMLID_259_" class="st0" d="M-232.8,381h-5.2l14.8,25.6l2.6-4.5L-232.8,381z"/>
	<path id="XMLID_258_" class="st0" d="M-218.7,395.6l-8.4-14.6h-5.1l11.9,20.6l1.7-2.9c0.3-0.5,0.4-1,0.4-1.6
		C-218.2,396.6-218.4,396-218.7,395.6z"/>
	<path id="XMLID_257_" class="st0" d="M-229,397.7l-8.8,15.3h5.1l6.3-10.9L-229,397.7z"/>
	<path id="XMLID_256_" class="st0" d="M-226.1,402.6l-6,10.4h5.2l3.4-5.9L-226.1,402.6z"/>
</g>
<text id="XMLID_2_" transform="matrix(0.994 0 0 1 -207.8249 411.7)" class="st0 st1 st2">Baroda</text>
<g id="XMLID_1_">
	<path class="st0" d="M-194,389.4c0,1.8-0.5,3.1-1.6,4.2c-1.2,1.2-2.7,1.9-4.6,1.9c-1.8,0-3.3-0.6-4.6-1.9c-1.3-1.3-1.9-2.8-1.9-4.7
		s0.6-3.4,1.9-4.7c1.3-1.2,2.8-1.8,4.6-1.8c0.9,0,1.8,0.2,2.6,0.5c0.8,0.3,1.5,0.8,2,1.4l-1.1,1.1c-0.8-1-2-1.5-3.4-1.5
		c-1.3,0-2.5,0.5-3.4,1.4c-1,0.9-1.4,2.1-1.4,3.6s0.5,2.7,1.4,3.6c1,0.9,2.1,1.4,3.4,1.4c1.4,0,2.6-0.5,3.5-1.4
		c0.6-0.6,1-1.5,1.1-2.5h-4.6v-1.5h6.1C-194.1,388.8-194,389.1-194,389.4z M-192.4,395.2v-12.6h3.8c1.9,0,3.5,0.6,4.6,1.7
		c1.2,1.2,1.7,2.7,1.7,4.5c0,1.8-0.6,3.4-1.7,4.5c-1.2,1.2-2.7,1.7-4.6,1.7h-3.8V395.2z M-190.8,393.6h2.2c1.4,0,2.6-0.4,3.4-1.2
		c0.8-0.8,1.3-2,1.3-3.5s-0.4-2.6-1.3-3.5c-0.8-0.8-2-1.3-3.4-1.3h-2.2V393.6z M-168.6,389.4c0,1.8-0.5,3.1-1.6,4.2
		c-1.2,1.2-2.7,1.9-4.6,1.9c-1.8,0-3.3-0.6-4.6-1.9c-1.3-1.3-1.9-2.8-1.9-4.7s0.6-3.4,1.9-4.7c1.3-1.3,2.8-1.9,4.6-1.9
		c0.9,0,1.8,0.2,2.6,0.5c0.8,0.3,1.5,0.8,2,1.4l-1.1,1.1c-0.8-1-2-1.5-3.4-1.5c-1.3,0-2.5,0.5-3.4,1.4c-1,0.9-1.4,2.1-1.4,3.6
		s0.5,2.7,1.4,3.6c1,0.9,2.1,1.4,3.4,1.4c1.4,0,2.6-0.5,3.5-1.4c0.6-0.6,1-1.5,1.1-2.5h-4.6v-1.4h6.1V389.4z M-162.8,395.2v-12.6
		h3.8c1.9,0,3.5,0.6,4.6,1.7c1.2,1.2,1.7,2.7,1.7,4.5c0,1.8-0.6,3.4-1.7,4.5c-1.2,1.2-2.7,1.7-4.6,1.7h-3.8V395.2z M-161.2,393.6
		h2.2c1.4,0,2.6-0.4,3.4-1.2c0.8-0.8,1.3-2,1.3-3.5s-0.4-2.6-1.3-3.5c-0.8-0.8-2-1.3-3.4-1.3h-2.2
		C-161.2,384.1-161.2,393.6-161.2,393.6z M-147.3,395.5c-1.3,0-2.3-0.4-3.2-1.3c-0.8-0.9-1.2-2-1.2-3.3c0-1.2,0.4-2.3,1.2-3.2
		c0.8-0.9,1.8-1.3,3-1.3c1.3,0,2.3,0.4,3.1,1.2c0.8,0.8,1.1,1.9,1.1,3.3v0.3h-6.8c0,0.9,0.3,1.5,0.9,2c0.5,0.5,1.2,0.8,1.9,0.8
		c1.2,0,1.9-0.5,2.3-1.5l1.4,0.6c-0.3,0.7-0.7,1.2-1.4,1.7C-145.6,395.2-146.4,395.5-147.3,395.5z M-145,389.9c0-0.5-0.3-1-0.7-1.4
		c-0.4-0.4-1-0.7-1.8-0.7c-0.6,0-1.1,0.2-1.5,0.6s-0.7,0.9-0.9,1.5H-145z M-139.9,395.2l-3.5-8.6h1.8l2.5,6.6l2.6-6.6h1.7l-3.5,8.6
		C-138.3,395.2-139.9,395.2-139.9,395.2z M-132.2,395.2h-1.6v-12.6h7.3v1.5h-5.7v4.1h5.1v1.5h-5.1
		C-132.2,389.7-132.2,395.2-132.2,395.2z M-121.7,395.5c-1.3,0-2.3-0.4-3.2-1.3c-0.8-0.9-1.2-2-1.2-3.3c0-1.2,0.4-2.3,1.2-3.2
		c0.8-0.9,1.8-1.3,3-1.3c1.3,0,2.3,0.4,3.1,1.2c0.8,0.8,1.1,1.9,1.1,3.3v0.3h-6.8c0,0.9,0.3,1.5,0.9,2c0.5,0.5,1.2,0.8,1.9,0.8
		c1.2,0,1.9-0.5,2.3-1.5l1.4,0.6c-0.3,0.7-0.7,1.2-1.4,1.7C-120,395.2-120.7,395.5-121.7,395.5z M-119.4,389.9c0-0.5-0.3-1-0.7-1.4
		c-0.4-0.4-1-0.7-1.8-0.7c-0.6,0-1.1,0.2-1.5,0.6s-0.7,0.9-0.9,1.5H-119.4z M-113.4,395.5c-1,0-1.7-0.2-2.4-0.7
		c-0.6-0.5-1.1-1-1.4-1.8l1.4-0.6c0.5,1.1,1.2,1.6,2.3,1.6c0.5,0,0.9-0.1,1.2-0.3c0.3-0.2,0.5-0.5,0.5-0.9c0-0.6-0.4-0.9-1.2-1.1
		l-1.7-0.4c-0.5-0.1-1.1-0.4-1.6-0.8s-0.7-0.9-0.7-1.6c0-0.8,0.3-1.4,1-1.8c0.7-0.5,1.5-0.7,2.4-0.7c0.8,0,1.4,0.2,2,0.5
		c0.6,0.3,1,0.8,1.3,1.5l-1.4,0.6c-0.3-0.8-1-1.1-2-1.1c-0.5,0-0.9,0.1-1.2,0.3c-0.3,0.2-0.5,0.5-0.5,0.8c0,0.5,0.4,0.8,1.1,1
		l1.7,0.4c0.8,0.2,1.4,0.5,1.8,1s0.6,1,0.6,1.5c0,0.8-0.3,1.4-0.9,1.9C-111.6,395.2-112.4,395.5-113.4,395.5z M-105.2,395.3
		c-0.9,0-1.6-0.2-2.1-0.7s-0.7-1.2-0.7-2v-4.5h-1.5v-1.5h1.5V384h1.6v2.6h2.1v1.5h-2.1v4.4c0,0.9,0.4,1.4,1.2,1.4
		c0.3,0,0.5,0,0.7-0.1l0.6,1.4C-104.2,395.2-104.7,395.3-105.2,395.3z M-141.5,411.7h-7.6v-1.6c2.3-2.3,3.8-3.8,4.4-4.5
		c0.6-0.6,1-1.1,1.2-1.5c0.2-0.3,0.3-0.7,0.3-1.2s-0.2-0.9-0.6-1.3c-0.4-0.4-0.9-0.6-1.6-0.6c-0.6,0-1.1,0.2-1.5,0.5
		c-0.4,0.4-0.6,0.7-0.7,1.1l-1.6-0.6c0.2-0.6,0.6-1.2,1.2-1.8c0.6-0.6,1.4-0.8,2.4-0.8c1.1,0,2,0.3,2.7,1c0.7,0.7,1.1,1.5,1.1,2.4
		c0,1.2-0.6,2.4-1.9,3.7l-3.5,3.5h5.5v1.7H-141.5z M-132.3,410.2c-0.9,1.2-2,1.8-3.5,1.8c-1.4,0-2.6-0.6-3.5-1.8
		c-0.9-1.2-1.3-2.7-1.3-4.5c0-1.8,0.4-3.3,1.3-4.5c0.9-1.2,2-1.8,3.5-1.8c1.4,0,2.6,0.6,3.5,1.8c0.9,1.2,1.3,2.7,1.3,4.5
		C-131,407.5-131.4,409-132.3,410.2z M-135.8,410.4c1,0,1.7-0.4,2.3-1.3s0.9-2,0.9-3.4c0-1.4-0.3-2.5-0.9-3.4
		c-0.6-0.9-1.3-1.3-2.3-1.3s-1.7,0.4-2.3,1.3c-0.6,0.9-0.9,2-0.9,3.4c0,1.4,0.3,2.5,0.9,3.4C-137.6,410-136.8,410.4-135.8,410.4z
		 M-125.9,411.7h-1.6v-10l-2.3,1l-0.6-1.4l3.5-1.6h1V411.7z M-117.1,410.9c-0.8,0.7-1.7,1-2.9,1c-1.1,0-2.1-0.3-2.9-1
		c-0.8-0.7-1.2-1.5-1.2-2.6c0-0.7,0.2-1.3,0.5-1.8c0.4-0.5,0.8-0.9,1.4-1.2v-0.1c-0.5-0.3-0.8-0.7-1.1-1.1c-0.3-0.4-0.4-0.9-0.4-1.4
		c0-1,0.3-1.8,1-2.4c0.7-0.6,1.6-1,2.6-1c1.1,0,1.9,0.3,2.6,1c0.7,0.6,1,1.5,1,2.4c0,0.5-0.1,1-0.4,1.4s-0.7,0.8-1.1,1.1v0.1
		c0.6,0.3,1.1,0.7,1.4,1.2c0.4,0.5,0.5,1.1,0.5,1.8C-115.9,409.4-116.3,410.2-117.1,410.9z M-121.7,409.8c0.5,0.4,1,0.6,1.7,0.6
		s1.2-0.2,1.7-0.6c0.5-0.4,0.7-0.9,0.7-1.5c0-0.6-0.2-1.1-0.7-1.5c-0.5-0.4-1-0.6-1.7-0.6s-1.2,0.2-1.7,0.6
		c-0.5,0.4-0.7,0.9-0.7,1.5C-122.4,408.9-122.1,409.4-121.7,409.8z M-121.4,404.1c0.4,0.3,0.9,0.5,1.4,0.5c0.6,0,1.1-0.2,1.4-0.5
		c0.4-0.3,0.6-0.8,0.6-1.4c0-0.6-0.2-1-0.6-1.3c-0.4-0.3-0.9-0.5-1.4-0.5c-0.6,0-1.1,0.2-1.4,0.5c-0.4,0.3-0.6,0.8-0.6,1.3
		C-122,403.3-121.8,403.8-121.4,404.1z"/>
</g>
</svg>
