<?xml version="1.0" encoding="UTF-8"?>
<svg width="1399px" height="200px" viewBox="0 0 1399 200" version="1.1" xmlns="http://www.w3.org/2000/svg" xmlns:xlink="http://www.w3.org/1999/xlink">
    <!-- Generator: Sketch 43.1 (39012) - http://www.bohemiancoding.com/sketch -->
    <title>organizer-logo</title>
    <desc>Created with Sketch.</desc>
    <defs></defs>
    <g id="Page-1" stroke="none" stroke-width="1" fill="none" fill-rule="evenodd">
        <g id="organizer-logo" fill="#757575">
            <g id="XMLID_6_" transform="translate(200.000000, 15.000000)">
                <path d="M569.755,153 L569.755,2.64 L624.145,2.64 C636.045059,2.64 646.264957,6.5599608 654.805,14.4 C663.345043,22.1000385 667.615,31.8299412 667.615,43.59 C667.615,58.4300742 660.825068,68.8599699 647.245,74.88 L647.245,75.72 C654.945039,78.2400126 661.104977,82.6149688 665.725,88.845 C670.345023,95.0750312 672.655,102.17996 672.655,110.16 C672.655,122.480062 668.175045,132.699959 659.215,140.82 C650.534957,148.940041 639.825064,153 627.085,153 L569.755,153 Z M589.075,21.12 L589.075,67.11 L624.145,67.11 C631.005034,67.11 636.744977,64.8000231 641.365,60.18 C645.985023,55.4199762 648.295,50.0300301 648.295,44.01 C648.295,38.1299706 646.055022,32.8100238 641.575,28.05 C637.094978,23.4299769 631.565033,21.12 624.985,21.12 L589.075,21.12 Z M589.075,85.17 L589.075,134.52 L627.925,134.52 C634.925035,134.52 640.874976,132.070024 645.775,127.17 C650.535024,122.269975 652.915,116.460034 652.915,109.74 C652.915,103.159967 650.465025,97.4200245 645.565,92.52 C640.664975,87.6199755 634.505037,85.17 627.085,85.17 L589.075,85.17 Z M705.205,121.5 C705.205,126.540025 707.339979,130.739983 711.61,134.1 C715.880021,137.460017 720.884971,139.14 726.625,139.14 C734.745041,139.14 741.989968,136.13003 748.36,130.11 C754.730032,124.08997 757.915,117.020041 757.915,108.9 C751.89497,104.139976 743.495054,101.76 732.715,101.76 C724.874961,101.76 718.330026,103.649981 713.08,107.43 C707.829974,111.210019 705.205,115.899972 705.205,121.5 Z M730.195,46.74 C744.475071,46.74 755.744959,50.5549618 764.005,58.185 C772.265041,65.8150381 776.395,76.2799335 776.395,89.58 L776.395,153 L757.915,153 L757.915,138.72 L757.075,138.72 C749.09496,150.480059 738.455066,156.36 725.155,156.36 C713.814943,156.36 704.330038,153.000034 696.7,146.28 C689.069962,139.559966 685.255,131.16005 685.255,121.08 C685.255,110.439947 689.27996,101.970032 697.33,95.67 C705.38004,89.3699685 716.124933,86.22 729.565,86.22 C741.045057,86.22 750.494963,88.319979 757.915,92.52 L757.915,88.11 C757.915,81.3899664 755.255027,75.6850235 749.935,70.995 C744.614973,66.3049765 738.385036,63.96 731.245,63.96 C720.464946,63.96 711.925031,68.5099545 705.625,77.61 L688.615,66.9 C697.995047,53.4599328 711.854908,46.74 730.195,46.74 Z M817.555,153 L798.235,153 L798.235,50.1 L816.715,50.1 L816.715,66.9 L817.555,66.9 C819.51501,61.4399727 823.53997,56.7850193 829.63,52.935 C835.72003,49.0849808 841.704971,47.16 847.585,47.16 C853.185028,47.16 857.94498,47.9999916 861.865,49.68 L855.985,68.37 C853.604988,67.3899951 849.825026,66.9 844.645,66.9 C837.364964,66.9 831.030027,69.8399706 825.64,75.72 C820.249973,81.6000294 817.555,88.4599608 817.555,96.3 L817.555,153 Z M868.585,101.55 C868.585,85.7299209 873.55495,72.6400518 883.495,62.28 C893.57505,51.9199482 906.244924,46.74 921.505,46.74 C936.765076,46.74 949.36495,51.9199482 959.305,62.28 C969.38505,72.6400518 974.425,85.7299209 974.425,101.55 C974.425,117.51008 969.38505,130.599949 959.305,140.82 C949.36495,151.180052 936.765076,156.36 921.505,156.36 C906.244924,156.36 893.57505,151.180052 883.495,140.82 C873.55495,130.459948 868.585,117.370079 868.585,101.55 Z M887.905,101.55 C887.905,112.610055 891.124968,121.569966 897.565,128.43 C904.005032,135.290034 911.984952,138.72 921.505,138.72 C931.025048,138.72 939.004968,135.290034 945.445,128.43 C951.885032,121.569966 955.105,112.610055 955.105,101.55 C955.105,90.6299454 951.885032,81.7400343 945.445,74.88 C938.864967,67.879965 930.885047,64.38 921.505,64.38 C912.124953,64.38 904.145033,67.879965 897.565,74.88 C891.124968,81.7400343 887.905,90.6299454 887.905,101.55 Z M1038.265,138.72 C1047.78505,138.72 1055.55497,135.290034 1061.575,128.43 C1067.87503,121.569966 1071.025,112.610055 1071.025,101.55 C1071.025,90.7699461 1067.87503,81.880035 1061.575,74.88 C1055.41497,67.879965 1047.64505,64.38 1038.265,64.38 C1029.02495,64.38 1021.25503,67.879965 1014.955,74.88 C1008.65497,81.880035 1005.505,90.7699461 1005.505,101.55 C1005.505,112.470055 1008.65497,121.359966 1014.955,128.22 C1021.25503,135.220035 1029.02495,138.72 1038.265,138.72 Z M1035.115,156.36 C1021.67493,156.36 1010.12505,151.040053 1000.465,140.4 C990.944952,129.619946 986.185,116.670076 986.185,101.55 C986.185,86.4299244 990.944952,73.4800539 1000.465,62.7 C1010.12505,52.0599468 1021.67493,46.74 1035.115,46.74 C1042.67504,46.74 1049.56997,48.3499839 1055.8,51.57 C1062.03003,54.7900161 1066.82498,59.0599734 1070.185,64.38 L1071.025,64.38 L1070.185,50.1 L1070.185,2.64 L1089.505,2.64 L1089.505,153 L1071.025,153 L1071.025,138.72 L1070.185,138.72 C1066.82498,144.040027 1062.03003,148.309984 1055.8,151.53 C1049.56997,154.750016 1042.67504,156.36 1035.115,156.36 Z M1127.095,121.5 C1127.095,126.540025 1129.22998,130.739983 1133.5,134.1 C1137.77002,137.460017 1142.77497,139.14 1148.515,139.14 C1156.63504,139.14 1163.87997,136.13003 1170.25,130.11 C1176.62003,124.08997 1179.805,117.020041 1179.805,108.9 C1173.78497,104.139976 1165.38505,101.76 1154.605,101.76 C1146.76496,101.76 1140.22003,103.649981 1134.97,107.43 C1129.71997,111.210019 1127.095,115.899972 1127.095,121.5 Z M1152.085,46.74 C1166.36507,46.74 1177.63496,50.5549618 1185.895,58.185 C1194.15504,65.8150381 1198.285,76.2799335 1198.285,89.58 L1198.285,153 L1179.805,153 L1179.805,138.72 L1178.965,138.72 C1170.98496,150.480059 1160.34507,156.36 1147.045,156.36 C1135.70494,156.36 1126.22004,153.000034 1118.59,146.28 C1110.95996,139.559966 1107.145,131.16005 1107.145,121.08 C1107.145,110.439947 1111.16996,101.970032 1119.22,95.67 C1127.27004,89.3699685 1138.01493,86.22 1151.455,86.22 C1162.93506,86.22 1172.38496,88.319979 1179.805,92.52 L1179.805,88.11 C1179.805,81.3899664 1177.14503,75.6850235 1171.825,70.995 C1166.50497,66.3049765 1160.27504,63.96 1153.135,63.96 C1142.35495,63.96 1133.81503,68.5099545 1127.515,77.61 L1110.505,66.9 C1119.88505,53.4599328 1133.74491,46.74 1152.085,46.74 Z" id="Baroda"></path>
                <path d="M159.9,89.4 C159.9,111.4 153.4,129 140.3,142.1 C125.5,157.7 106.2,165.5 82.4,165.5 C59.6,165.5 40.3,157.6 24.3,141.8 C8.4,126 0.4,106.4 0.4,83.1 C0.4,59.8 8.4,40.2 24.3,24.4 C40.2,8.6 59.6,0.7 82.4,0.7 C93.7,0.7 104.5,2.9 114.8,7.3 C125.1,11.7 133.3,17.6 139.5,24.9 L125.6,38.8 C115.1,26.2 100.7,20 82.3,20 C65.7,20 51.3,25.8 39.2,37.5 C27.1,49.2 21,64.3 21,83 C21,101.7 27.1,116.8 39.2,128.5 C51.3,140.2 65.7,146 82.3,146 C99.9,146 114.6,140.1 126.4,128.4 C134,120.8 138.4,110.1 139.6,96.5 L82.3,96.5 L82.3,77.5 L158.7,77.5 C159.5,81.6 159.9,85.6 159.9,89.4 L159.9,89.4 Z" id="XMLID_3_" fill-rule="nonzero"></path>
                <path d="M180.3,161.9 L180.3,4.1 L228.5,4.1 C252.7,4.1 272.1,11.4 286.7,26 C301.2,40.6 308.5,59.6 308.5,83 C308.5,106.4 301.2,125.3 286.7,140 C272.2,154.6 252.8,161.9 228.5,161.9 L180.3,161.9 Z M200.6,142.5 L228.6,142.5 C246.8,142.5 261.2,137.3 271.9,126.9 C282.5,116.5 287.9,101.9 287.9,83.1 C287.9,64.4 282.6,49.9 271.9,39.4 C261.2,28.9 246.8,23.6 228.6,23.6 L200.6,23.6 L200.6,142.5 Z" id="XMLID_20_" fill-rule="nonzero"></path>
                <path d="M481,89.4 C481,111.4 474.5,129 461.4,142.1 C446.6,157.7 427.3,165.5 403.5,165.5 C380.7,165.5 361.4,157.6 345.4,141.8 C329.5,126 321.5,106.4 321.5,83.1 C321.5,59.8 329.5,40.2 345.4,24.4 C361.3,8.6 380.7,0.7 403.5,0.7 C414.8,0.7 425.6,2.9 435.9,7.3 C446.2,11.7 454.4,17.6 460.6,24.9 L446.7,38.8 C436.2,26.2 421.8,20 403.4,20 C386.8,20 372.4,25.8 360.3,37.5 C348.2,49.2 342.1,64.3 342.1,83 C342.1,101.7 348.2,116.8 360.3,128.5 C372.4,140.2 386.8,146 403.4,146 C421,146 435.7,140.1 447.5,128.4 C455.1,120.8 459.5,110.1 460.7,96.5 L403.4,96.5 L403.4,77.5 L479.8,77.5 C480.6,81.6 481,85.6 481,89.4 L481,89.4 Z" id="XMLID_23_" fill-rule="nonzero"></path>
            </g>
            <g id="XMLID_261_" fill-rule="nonzero">
                <polygon id="XMLID_259_" points="32.3 0 0 0 92.3 160 108.5 132"></polygon>
                <path d="M120.9,91 L68.3,0 L36.1,0 L110.4,128.8 L120.9,110.6 C122.6,107.8 123.7,104.4 123.7,100.8 C123.6,97.2 122.6,93.9 120.9,91 L120.9,91 Z" id="XMLID_258_"></path>
                <polygon id="XMLID_257_" points="56.3 104.1 0.9 200 33.2 200 72.5 132"></polygon>
                <polygon id="XMLID_256_" points="74.3 135.3 37 200 69.2 200 90.5 163.2"></polygon>
            </g>
        </g>
    </g>
</svg>